<?xml version="1.0" encoding="utf-8"?>
<!-- Generator: Adobe Illustrator 22.0.0, SVG Export Plug-In . SVG Version: 6.00 Build 0)  -->
<svg version="1.1" id="Layer_1" xmlns="http://www.w3.org/2000/svg" xmlns:xlink="http://www.w3.org/1999/xlink" x="0px" y="0px"
	 viewBox="0 0 65 65" style="enable-background:new 0 0 65 65;" xml:space="preserve">
<style type="text/css">
	.st0{fill:#85754D;}
	.st1{fill:#FFFFFF;}
</style>
<g>
	<circle class="st0" cx="14.8" cy="24.9" r="1.3"/>
	<circle class="st0" cx="18.6" cy="19.8" r="1.3"/>
	<circle class="st0" cx="24.4" cy="16.6" r="1.3"/>
	<circle class="st0" cx="30.9" cy="15.6" r="1.3"/>
	<circle class="st0" cx="37.4" cy="16.6" r="1.3"/>
	<circle class="st0" cx="43.2" cy="19.7" r="1.3"/>
	<circle class="st1" cx="48.6" cy="26" r="2.8"/>
	<path class="st1" d="M32,25.5c-5.1,0-9.2,4.1-9.2,9.1s4.1,9.1,9.2,9.1c5.1,0,9.2-4.1,9.2-9.1S37.1,25.5,32,25.5z M32,40.5
		c-3.3,0-5.9-2.6-5.9-5.9c0-3.2,2.7-5.9,5.9-5.9c3.3,0,5.9,2.6,5.9,5.9C37.9,37.9,35.3,40.5,32,40.5z"/>
</g>
</svg>
